######## ######## ######## ##          ######## ########  ######## ######## 
##       ##       ##       ##          ##       ##     ## ##       ##       
##       ##       ##       ##          ##       ##     ## ##       ##       
######   ######   ######   ##          ######   ########  ######   ######   
##       ##       ##       ##          ##       ##   ##   ##       ##       
##       ##       ##       ##          ##       ##    ##  ##       ##       
##       ######## ######## ########    ##       ##     ## ######## ######## 



Genre:Drama
Language:English
IMDb:http://www.imdb.com/title/tt1023114/
Source:PPVRIP.IFLIX Thx.


Format : AVI
Format/Info : Audio Video Interleave
File size : 1.28 GiB
Duration : 2h 11mn
Overall bit rate : 1 387 Kbps


Video
Codec ID/Hint : XviD
Duration : 2h 11mn
Bit rate : 1 246 Kbps
Width : 720 pixels
Height : 400 pixels
Display aspect ratio : 16:9
Frame rate : 29.970 fps
Color space : YUV
Chroma subsampling : 4:2:0
Bit depth : 8 bits
Scan type : Progressive
Bits/(Pixel*Frame) : 0.144
Stream size : 1.15 GiB (90%)
Writing library : XviD 1.2.1

Audio
ID : 1
Format : MPEG Audio
Format version : Version 1
Format profile : Layer 3
Mode : Joint stereo
Mode extension : MS Stereo
Codec ID : 55
Codec ID/Hint : MP3
Duration : 2h 11mn
Bit rate mode : Constant
Bit rate : 128 Kbps
Channel(s) : 2 channels
Sampling rate : 44.1 KHz
Stream size : 121 MiB (9%)
Alignment : Aligned on interleaves
Interleave, duration : 26 ms (0.78 video frame)
Interleave, preload duration : 522 ms
Writing library : LAME3.98.2


Plot:
Siberian gulag escapees walk 4000 miles overland to freedom in India





================================== 
http://thepiratebay.org/user/hiest
==================================





Screenshots:
 
http://www.postimg.com/30000/photo-29657.jpg
 
http://www.postimg.com/30000/photo-29659.jpg
 
http://www.postimg.com/30000/photo-29661.jpg
 
http://www.postimg.com/30000/photo-29658.jpg
 
http://www.postimg.com/30000/photo-29660.jpg
 
http://www.postimg.com/30000/photo-29662.jpg


######## ######## ######## ##          ######## ########  ######## ######## 
##       ##       ##       ##          ##       ##     ## ##       ##       
##       ##       ##       ##          ##       ##     ## ##       ##       
######   ######   ######   ##          ######   ########  ######   ######   
##       ##       ##       ##          ##       ##   ##   ##       ##       
##       ##       ##       ##          ##       ##    ##  ##       ##       
##       ######## ######## ########    ##       ##     ## ######## ######## 